<?xml version="1.0" encoding="utf-8"?>
<!-- Generator: Adobe Illustrator 18.1.1, SVG Export Plug-In . SVG Version: 6.00 Build 0)  -->
<svg version="1.1" id="Layer_1" xmlns="http://www.w3.org/2000/svg" xmlns:xlink="http://www.w3.org/1999/xlink" x="0px" y="0px"
	 viewBox="-370 248.3 100 100" enable-background="new -370 248.3 100 100" xml:space="preserve">
<path fill="#FCFCFC" d="M-289,261.6H-351c-3.1,0-5.7,2.6-5.7,5.7v61.9c0,3.1,2.6,5.7,5.7,5.7h31.5h14.6h15.9c3.1,0,5.7-2.6,5.7-5.7
	v-61.9C-283.3,264.2-285.9,261.6-289,261.6z M-315.7,331.2v-27h-9.1v-6.7h9.1v-9.7c0-3.8,1.1-6.9,3.2-9c2-2,5-3,8.5-3
	c2.5,0,4.6,0.1,6.3,0.2v5.9l-3.8,0c-7.1,0-7.1,5.2-7.1,7v8.6h10.2l-0.9,6.7h-9.4v27H-315.7z M-287,329.2c0,1.1-0.9,2-2,2h-16v-23.3
	h8.9l1.8-14.1H-305v-4.9c0-1.3,0.2-2.1,0.6-2.5c0.4-0.5,1.4-0.8,2.9-0.8l7.5,0v-12.9l-1.6-0.2c-0.8-0.1-4.2-0.4-8.4-0.4
	c-4.5,0-8.3,1.4-11.1,4.1c-2.8,2.8-4.3,6.8-4.3,11.6v6h-9.1v14.1h9.1v23.3H-351c-1.1,0-2-0.9-2-2v-61.9c0-1.1,0.9-2,2-2h61.9
	c1.1,0,2,0.9,2,2V329.2z"/>
</svg>
