<?xml version="1.0" encoding="utf-8"?>
<!-- Generator: Adobe Illustrator 18.1.1, SVG Export Plug-In . SVG Version: 6.00 Build 0)  -->
<svg version="1.1" id="Layer_1" xmlns="http://www.w3.org/2000/svg" xmlns:xlink="http://www.w3.org/1999/xlink" x="0px" y="0px"
	 viewBox="-370 248.3 100 100" enable-background="new -370 248.3 100 100" xml:space="preserve">
<g>
	<path fill="none" d="M-336.1,291.7c2.6-5.7,8.4-9.7,15.1-9.7c6.7,0,12.5,4,15.1,9.7h13.2v-16c0-3.1-2.5-5.7-5.6-5.7h-30.9v8.2
		c0,1.1-0.9,2-1.9,2c-1.1,0-1.9-0.9-1.9-2V270h-1.4v8.2c0,1.1-0.9,2-1.9,2c-1.1,0-1.9-0.9-1.9-2V270h-1.7v8.2c0,1.1-0.9,2-1.9,2
		c-1.1,0-1.9-0.9-1.9-2V270c-2.9,0.2-5.2,2.7-5.2,5.6v16L-336.1,291.7L-336.1,291.7z M-308,277.8c0-1.3,1.1-2.4,2.4-2.4h5.1
		c1.3,0,2.4,1.1,2.4,2.4v5.1c0,1.3-1.1,2.4-2.4,2.4h-5.1c-1.3,0-2.4-1.1-2.4-2.4V277.8z"/>
	<path fill="none" d="M-329.5,298.7c0,4.7,3.8,8.6,8.6,8.6c4.7,0,8.6-3.9,8.6-8.6c0-4.7-3.8-8.6-8.6-8.6
		C-325.7,290.1-329.5,293.9-329.5,298.7z"/>
	<path fill="none" d="M-304.3,297.5c0,0.4,0,0.8,0,1.1c0,9.2-7.5,16.7-16.7,16.7c-9.2,0-16.7-7.5-16.7-16.7c0-0.4,0-0.8,0-1.1h-11.5
		v23.4c0,3.1,2.5,5.7,5.6,5.7h45.2c3.1,0,5.6-2.5,5.6-5.7v-23.4H-304.3z"/>
	<path fill="#FFFFFF" d="M-298.3,262.5h-45.2c-7.2,0-13.1,5.9-13.1,13.1v45.3c0,7.2,5.9,13.1,13.1,13.1h45.2
		c7.2,0,13.1-5.9,13.1-13.1v-45.3C-285.2,268.4-291.1,262.5-298.3,262.5z M-343.9,270v8.2c0,1.1,0.9,2,1.9,2c1.1,0,1.9-0.9,1.9-2
		V270h1.7v8.2c0,1.1,0.9,2,1.9,2c1.1,0,1.9-0.9,1.9-2V270h1.4v8.2c0,1.1,0.9,2,1.9,2c1.1,0,1.9-0.9,1.9-2V270h30.9
		c3.1,0,5.6,2.5,5.6,5.7v16h-13.2c-2.6-5.7-8.4-9.7-15.1-9.7c-6.7,0-12.5,4-15.1,9.7h-13v-16C-349.1,272.7-346.8,270.2-343.9,270z
		 M-312.4,298.7c0,4.7-3.8,8.6-8.6,8.6c-4.7,0-8.6-3.9-8.6-8.6c0-4.7,3.8-8.6,8.6-8.6C-316.2,290.1-312.4,293.9-312.4,298.7z
		 M-298.3,326.6h-45.2c-3.1,0-5.6-2.5-5.6-5.7v-23.4h11.5c0,0.4,0,0.8,0,1.1c0,9.2,7.5,16.7,16.7,16.7c9.2,0,16.7-7.5,16.7-16.7
		c0-0.4,0-0.8,0-1.1h11.7v23.4C-292.7,324.1-295.2,326.6-298.3,326.6z"/>
	<path fill="none" d="M-305.6,285.3h5.1c1.3,0,2.4-1.1,2.4-2.4v-5.1c0-1.3-1.1-2.4-2.4-2.4h-5.1c-1.3,0-2.4,1.1-2.4,2.4v5.1
		C-308,284.2-307,285.3-305.6,285.3z"/>
</g>
</svg>
